<svg xmlns="http://www.w3.org/2000/svg" viewBox="0 0 100 100">
  <rect width="100" height="100" fill="#FEE2E2" rx="20"/>
  <path d="M 50 25 L 85 25 Q 90 25 90 30 L 90 45 Q 90 50 85 50 L 55 50 L 50 58 L 55 50 L 55 50 Q 50 50 50 45 L 50 30 Q 50 25 55 25 Z" fill="#DC2626"/>
  <path d="M 15 60 L 50 60 Q 55 60 55 65 L 55 80 Q 55 85 50 85 L 20 85 L 15 93 L 20 85 L 20 85 Q 15 85 15 80 L 15 65 Q 15 60 20 60 Z" fill="#FECACA"/>
  <circle cx="62" cy="35" r="1.5" fill="white"/>
  <circle cx="70" cy="35" r="1.5" fill="white"/>
  <circle cx="28" cy="70" r="1.5" fill="#7F1D1D"/>
  <circle cx="36" cy="70" r="1.5" fill="#7F1D1D"/>
</svg>
