<svg xmlns="http://www.w3.org/2000/svg" viewBox="0 0 24 24"><g fill="none"><path d="M17.665 15.587l-3.68-3.679c1.088-1.749.775-4.268-1.015-5.678-1.646-1.337-3.859-.556-5.105 1.091-1.245 1.626-1.084 3.94.714 5.356 1.048.854 2.337 1.284 3.688 1.284 1.272 0 2.562-.353 3.482-1.048zm-4.665 1.413c.916 0 1.78-.174 2.614-.487l3.204 3.203c.358.362.932.33 1.232-.075.298-.403.272-.973-.075-1.351l-3.203-3.204c.312-.889.487-1.86.487-2.867C20 7.224 16.776 4 12 4S4 7.224 4 12s3.224 8 8 8zm-1-15c0-.553-.447-1-1-1s-1 .447-1 1 .447 1 1 1 1-.447 1-1z" fill="#003DA5"/><path d="M11 6.5c-2.486 0-4.5 2.014-4.5 4.5s2.014 4.5 4.5 4.5 4.5-2.014 4.5-4.5-2.014-4.5-4.5-4.5z" fill="#65AEDD"/><path d="M6 12c0-1.086.293-2.083.786-2.943l-1.517-1.517C4.935 11.896 4 12.949 4 14c0 2.21 1.79 4 4 4 .209 0 .418-.024.623-.067l-1.517-1.517C6.293 14.083 6 13.086 6 12z" fill="#007A33"/></g></svg>