<svg xmlns="http://www.w3.org/2000/svg" width="512" height="512" viewBox="0 0 512 512" aria-labelledby="title desc" role="img">
  <title id="title">Suleiman Play Store Logo</title>
  <desc id="desc">Modern geometric S monogram in teal and gold with tech lines</desc>
  <defs>
    <linearGradient id="g1" x1="0" x2="1" y1="0" y2="1">
      <stop offset="0%" stop-color="#18A999"/>
      <stop offset="100%" stop-color="#20B2AA"/>
    </linearGradient>
    <linearGradient id="g2" x1="0" x2="1" y1="0" y2="1">
      <stop offset="0%" stop-color="#FFD166"/>
      <stop offset="100%" stop-color="#F4B400"/>
    </linearGradient>
  </defs>

  <rect x="32" y="32" width="448" height="448" rx="64" ry="64" fill="url(#g1)"/>
  <path d="M150 160c0-18 14-32 32-32h110c22 0 40 18 40 40v8c0 22-18 40-40 40h-70c-24 0-44 20-44 44v8c0 24 20 44 44 44h100"
        fill="none" stroke="white" stroke-width="22" stroke-linecap="round" stroke-linejoin="round"/>
  <path d="M362 240c0 40-33 72-73 72H170"
        fill="none" stroke="url(#g2)" stroke-width="18" stroke-linecap="round" stroke-linejoin="round"/>
</svg>
